<svg width="20" height="21" fill="none" xmlns="http://www.w3.org/2000/svg"><path d="M19.07 11.737a3.689 3.689 0 00.61-2.057c0-.867-.315-1.62-.945-2.26-.63-.639-1.375-.959-2.237-.959h-2.187c.397-.832.597-1.64.597-2.423 0-.984-.146-1.766-.436-2.347A2.752 2.752 0 0013.205.41C12.649.137 12.024 0 11.328 0c-.423 0-.795.156-1.118.467-.357.353-.613.808-.77 1.363a17.973 17.973 0 00-.38 1.596c-.095.51-.242.87-.441 1.08-.406.445-.85.984-1.33 1.615-.837 1.102-1.404 1.754-1.702 1.956H2.182c-.44 0-.815.158-1.125.473A1.57 1.57 0 00.59 9.692v8.077c0 .446.155.827.466 1.142.31.316.685.473 1.125.473H5.76c.183 0 .754.169 1.715.505 1.02.362 1.916.638 2.691.827a9.88 9.88 0 002.355.284h1.603c1.168 0 2.109-.339 2.821-1.016.712-.678 1.065-1.6 1.057-2.77.497-.648.745-1.397.745-2.247a3.89 3.89 0 00-.037-.542c.315-.564.472-1.17.472-1.817a3.34 3.34 0 00-.112-.871z" fill="#E8E8E8"/></svg>