<svg width="28" height="28" fill="none" xmlns="http://www.w3.org/2000/svg"><path fill-rule="evenodd" clip-rule="evenodd" d="M12.5 9a4.5 4.5 0 1 0 0 9 4.5 4.5 0 0 0 0-9Zm-3.074 4.5a3.074 3.074 0 1 1 6.148 0 3.074 3.074 0 0 1-6.148 0Z" fill="#313132"/><path fill-rule="evenodd" clip-rule="evenodd" d="M9.871 2c-.704 0-1.374.307-1.838.842L6.111 5.061a.89.89 0 0 1-.673.308H2.442C1.092 5.37 0 6.474 0 7.834v12.634c0 1.36 1.092 2.465 2.442 2.465H18.29c.43 0 .774-.351.774-.78 0-.43-.345-.78-.774-.78H2.442a.9.9 0 0 1-.894-.905V7.834a.9.9 0 0 1 .894-.905h2.996c.705 0 1.375-.307 1.839-.842l1.922-2.219a.89.89 0 0 1 .672-.308h5.225c.237 0 .464.095.632.264l2.359 2.383a2.43 2.43 0 0 0 1.727.722h2.645a.9.9 0 0 1 .895.905v8.423c0 .429.345.78.774.78.429 0 .773-.351.773-.78V7.834c0-1.36-1.091-2.465-2.442-2.465h-2.645a.89.89 0 0 1-.631-.264l-2.36-2.383A2.431 2.431 0 0 0 15.096 2H9.871Zm14.195 16.2a.855.855 0 0 0-.858.851v2.197h-2.217a.855.855 0 0 0-.858.852c0 .471.385.851.858.851h2.217v2.197c0 .472.385.852.858.852s.858-.38.858-.852v-2.197h2.218c.473 0 .858-.38.858-.851a.855.855 0 0 0-.858-.852h-2.218v-2.197a.855.855 0 0 0-.858-.851Z" fill="#313132"/></svg>